<svg width="133" height="25" viewBox="0 0 133 25" fill="none" xmlns="http://www.w3.org/2000/svg">
<path d="M108.859 12.18C108.859 8.94 110.229 6.57 112.969 5.07C113.529 4.75 114.169 4.27 114.889 3.63C115.629 2.99 116.259 2.42 116.779 1.92C117.299 1.42 117.959 0.979999 118.759 0.599999C119.559 0.2 120.379 0 121.219 0C121.779 0 122.289 0.0400002 122.749 0.12C123.229 0.18 123.649 0.259999 124.009 0.359999C124.369 0.46 124.729 0.650001 125.089 0.930001C125.469 1.19 125.779 1.42 126.019 1.62C126.259 1.82 126.569 2.17 126.949 2.67C127.349 3.15 127.659 3.56 127.879 3.9C128.119 4.22 128.479 4.73 128.959 5.43C129.159 5.73 129.499 6.19 129.979 6.81C130.559 7.53 130.989 8.1 131.269 8.52C131.569 8.94 131.869 9.51 132.169 10.23C132.469 10.93 132.619 11.59 132.619 12.21C132.619 13.77 132.389 15.3 131.929 16.8C131.489 18.28 130.879 19.61 130.099 20.79C129.319 21.95 128.339 22.88 127.159 23.58C125.979 24.3 124.709 24.66 123.349 24.66C122.649 24.66 121.939 24.57 121.219 24.39C119.339 23.91 117.679 23.33 116.239 22.65C114.819 21.99 113.539 21.18 112.399 20.22C111.259 19.26 110.379 18.11 109.759 16.77C109.159 15.41 108.859 13.88 108.859 12.18ZM130.399 11.01C130.259 10.35 130.039 9.76 129.739 9.24C129.459 8.72 129.169 8.32 128.869 8.04C128.589 7.74 128.259 7.39 127.879 6.99C127.499 6.57 127.199 6.16 126.979 5.76C126.559 5.04 126.249 4.52 126.049 4.2C125.869 3.86 125.609 3.45 125.269 2.97C124.949 2.47 124.669 2.12 124.429 1.92C124.189 1.72 123.899 1.5 123.559 1.26C123.219 1.02 122.859 0.859999 122.479 0.779999C122.099 0.7 121.679 0.660001 121.219 0.660001C120.479 0.660001 119.789 0.850001 119.149 1.23C118.509 1.61 117.989 2.05 117.589 2.55C117.189 3.03 116.679 3.62 116.059 4.32C115.439 5.02 114.849 5.58 114.289 6C113.589 6.54 112.969 7.25 112.429 8.13C111.909 9.01 111.519 9.9 111.259 10.8C110.999 11.68 110.809 12.45 110.689 13.11C110.569 13.77 110.509 14.28 110.509 14.64C110.509 15.18 110.579 15.68 110.719 16.14C110.879 16.6 111.059 17 111.259 17.34C111.459 17.68 111.769 18.02 112.189 18.36C112.609 18.68 112.979 18.94 113.299 19.14C113.619 19.34 114.079 19.56 114.679 19.8C115.279 20.04 115.759 20.23 116.119 20.37C116.479 20.49 117.009 20.67 117.709 20.91C119.049 21.35 120.049 21.71 120.709 21.99C121.569 22.33 122.559 22.5 123.679 22.5C124.779 22.5 125.779 22.29 126.679 21.87C127.599 21.45 128.289 20.76 128.749 19.8C129.649 17.8 130.199 16.51 130.399 15.93C130.599 15.33 130.699 14.56 130.699 13.62C130.699 12.84 130.599 11.97 130.399 11.01Z" fill="#5C6D52"/>
<path d="M100.572 24.09H97.1524C96.4524 23.59 95.8724 22.94 95.4124 22.14L91.8424 15.9C91.3224 15.02 90.6424 14.39 89.8024 14.01H84.7924C84.5924 14.01 84.4224 14.08 84.2824 14.22C84.1424 14.36 84.0724 14.52 84.0724 14.7V24.09H81.1024V0.570007H90.3424C92.7824 0.570007 94.8124 1.21001 96.4324 2.49001C98.0524 3.75001 98.8624 5.34001 98.8624 7.26001C98.8624 9.00001 98.2024 10.48 96.8824 11.7C95.5824 12.92 93.8924 13.66 91.8124 13.92C93.5524 14.42 94.7524 15.24 95.4124 16.38L98.4124 21.54C99.0324 22.64 99.7524 23.49 100.572 24.09ZM84.0124 12.81C84.0324 12.97 84.1024 13.1 84.2224 13.2C84.3424 13.3 84.4724 13.35 84.6124 13.35H89.7724C91.5724 13.35 93.0124 12.8 94.0924 11.7C95.1924 10.58 95.7424 9.11001 95.7424 7.29001C95.7424 5.47001 95.1924 4.01001 94.0924 2.91001C93.0124 1.81001 91.5724 1.26001 89.7724 1.26001H84.5524C84.4124 1.26001 84.2924 1.30001 84.1924 1.38001C84.0924 1.46001 84.0424 1.57001 84.0424 1.71001L83.5024 6.27001C83.4624 6.63001 83.4424 7.00001 83.4424 7.38001C83.4424 7.76001 83.4624 8.14001 83.5024 8.52001L84.0124 12.81Z" fill="#5C6D52"/>
<path d="M63.7704 0.570007H66.7704L66.0204 10.35C65.9804 10.95 65.9604 11.55 65.9604 12.15C65.9604 12.75 65.9804 13.35 66.0204 13.95L66.7704 24.09H63.7704V0.570007Z" fill="#5C6D52"/>
<path d="M43.9882 17.13H32.2282L29.1682 24.09H28.2382L38.5282 0.570007H39.8482L50.1082 24.09H46.9882L43.9882 17.13ZM43.5382 15.69L42.9082 12C42.5682 10.18 41.8382 8.54001 40.7182 7.08001L38.7682 4.53001C38.6282 4.33001 38.4282 4.25001 38.1682 4.29001C37.9282 4.31001 37.7582 4.44001 37.6582 4.68001L32.8282 15.66C32.7482 15.86 32.7582 16.05 32.8582 16.23C32.9782 16.39 33.1482 16.47 33.3682 16.47H42.8782C43.0982 16.47 43.2682 16.39 43.3882 16.23C43.5282 16.07 43.5782 15.89 43.5382 15.69Z" fill="#5C6D52"/>
<path d="M3.75 13.95C3.25 14.39 3 14.95 3 15.63V24.09H0V0.570007H3V11.34C3 11.62 3.1 11.86 3.3 12.06C3.5 12.24 3.73 12.33 3.99 12.33C4.25 12.33 4.47 12.25 4.65 12.09L17.43 0.570007H18.6L8.52 9.63001L19.35 24.09H15.84L7.29 12.63C7.03 12.29 6.69 12.12 6.27 12.12C5.93 12.12 5.64 12.23 5.4 12.45L3.75 13.95Z" fill="#5C6D52"/>
</svg>
