<svg width="114" height="119" viewBox="0 0 114 119" fill="none" xmlns="http://www.w3.org/2000/svg">
<path d="M0 58.4145C0 42.8757 6.57044 31.5093 19.7113 24.3154C22.397 22.7807 25.4664 20.4787 28.9195 17.4093C32.4685 14.3399 35.49 11.6062 37.9838 9.2082C40.4777 6.81023 43.643 4.70002 47.4798 2.87756C51.3165 0.959188 55.2492 0 59.2778 0C61.9635 0 64.4094 0.191837 66.6156 0.575513C68.9176 0.863266 70.9319 1.24694 72.6584 1.72653C74.385 2.20613 76.1116 3.11736 77.8381 4.46022C79.6606 5.70716 81.1473 6.81023 82.2983 7.76942C83.4493 8.72861 84.936 10.4072 86.7585 12.8052C88.6769 15.1072 90.1636 17.0735 91.2187 18.7042C92.3698 20.2389 94.0963 22.6848 96.3984 26.0419C97.3576 27.4807 98.9882 29.6869 101.29 32.6603C104.072 36.1134 106.134 38.8471 107.477 40.8614C108.916 42.8757 110.355 45.6094 111.793 49.0624C113.232 52.4196 113.951 55.5849 113.951 58.5584C113.951 66.0401 112.848 73.3779 110.642 80.5718C108.532 87.6697 105.607 94.0483 101.866 99.7075C98.1249 105.271 93.4249 109.731 87.7657 113.088C82.1065 116.541 76.0156 118.268 69.4932 118.268C66.136 118.268 62.7309 117.836 59.2778 116.973C50.2614 114.671 42.3002 111.889 35.394 108.628C28.5838 105.463 22.445 101.578 16.9776 96.9739C11.5103 92.3698 7.28981 86.8544 4.31633 80.4279C1.43876 73.9054 0 66.5676 0 58.4145ZM103.304 52.8033C102.633 49.638 101.578 46.8084 100.139 44.3145C98.7963 41.8206 97.4055 39.9022 95.9667 38.5593C94.6238 37.1206 93.0412 35.442 91.2187 33.5236C89.3963 31.5093 87.9575 29.543 86.9024 27.6246C84.8881 24.1715 83.4014 21.6776 82.4422 20.1429C81.5789 18.5123 80.332 16.546 78.7014 14.2439C77.1667 11.846 75.8238 10.1674 74.6728 9.2082C73.5217 8.24902 72.1309 7.19391 70.5003 6.04288C68.8697 4.89185 67.1431 4.1245 65.3207 3.74083C63.4982 3.35716 61.4839 3.16532 59.2778 3.16532C55.7288 3.16532 52.4196 4.07655 49.3502 5.899C46.2808 7.72146 43.7869 9.83167 41.8686 12.2296C39.9502 14.5317 37.5042 17.3613 34.5307 20.7185C31.5573 24.0756 28.7277 26.7613 26.0419 28.7756C22.6848 31.3654 19.7113 34.7706 17.1215 38.991C14.6276 43.2114 12.7572 47.4798 11.5102 51.7961C10.2633 56.0166 9.35207 59.7094 8.77656 62.8747C8.20104 66.0401 7.91328 68.486 7.91328 70.2125C7.91328 72.8023 8.24902 75.2003 8.92045 77.4064C9.6878 79.6126 10.551 81.5309 11.5102 83.1616C12.4694 84.7922 13.9562 86.4228 15.9705 88.0534C17.9848 89.5881 19.7593 90.8351 21.294 91.7943C22.8287 92.7534 25.0348 93.8086 27.9124 94.9596C30.7899 96.1106 33.092 97.0218 34.8185 97.6933C36.545 98.2688 39.0869 99.132 42.444 100.283C48.8706 102.393 53.6666 104.12 56.8319 105.463C60.9564 107.093 65.7044 107.909 71.0758 107.909C76.3513 107.909 81.1473 106.901 85.4636 104.887C89.8759 102.873 93.1851 99.5637 95.3912 94.9596C99.7076 85.3677 102.345 79.1809 103.304 76.3993C104.264 73.5217 104.743 69.8289 104.743 65.3207C104.743 61.5798 104.264 57.4074 103.304 52.8033Z" fill="#5C6D52"/>
</svg>
